<svg xmlns="http://www.w3.org/2000/svg" xmlns:xlink="http://www.w3.org/1999/xlink" width="161" height="161" viewBox="0 0 161 161"><defs><circle id="a" cx="77.5" cy="77.5" r="77.5"/></defs><g fill="none" fill-rule="evenodd" transform="translate(3 3)"><mask id="b" fill="#fff"><use xlink:href="#a"/></mask><use fill="#FFF" stroke="#5225b4" stroke-width="6" xlink:href="#a"/><path fill="#5225b4" d="M112.148 128.166c4.761-7.144 5.164-17.298 5.18-17.771l.001-60.657-.063-.25c-.062-.245-1.593-6.1-7.405-11.918C100.31 28.007 86.718 26 77 26c-17.607 0-27.588 6.292-32.861 11.57-5.812 5.818-7.343 11.673-7.405 11.919l-.063.249v60.587l.001.07c.016.474.42 10.66 5.208 17.81-18.432 8.886-18.87 21.301-18.88 21.847V159h108v-8.926c-.004-.55-.31-13.06-18.852-21.908zm-71.376-17.883v-60c.31-1.01 1.841-5.373 6.264-9.801C53.812 33.699 64.173 30.113 77 30.113c12.716 0 23.018 3.528 29.794 10.2 4.512 4.444 6.115 8.957 6.434 9.976v59.994c-.027.611-.533 10.27-4.918 16.21a71.486 71.486 0 0 0-4.542-1.62c-2.443-1.29-8.456-4.708-11.046-7.16v-6.662c4.872-2.794 8.93-6.967 11.78-12.14 3.026-5.487 4.625-11.971 4.625-18.751V64.356L96.222 48.178l-1.615 1.821C80.939 65.411 47.417 63.053 47.08 63.027l-2.207-.17V80.16c0 6.78 1.6 13.264 4.624 18.751 2.852 5.173 6.909 9.346 11.781 12.14v6.662c-2.59 2.452-8.603 5.87-11.046 7.16a65.708 65.708 0 0 0-4.52 1.646c-4.41-5.947-4.913-15.638-4.94-16.236zm33.929 21.048c-.609 2.616-2.715 7.102-10.005 7.102-8.235 0-10.72-7.427-11.4-10.542 2.221-1.217 6.583-3.716 9.564-6.12 2.031 3.098 6.225 8.37 11.84 9.56zm-21.614-34.41c-2.69-4.88-4.112-10.676-4.112-16.761V67.24a108.3 108.3 0 0 0 17.38-.84c13.218-1.74 23.172-5.748 29.637-11.926l9.033 11.325v14.36c0 6.086-1.421 11.882-4.112 16.762-2.671 4.846-6.538 8.679-11.189 11.086C85.907 110 81.625 111.01 77 111.01s-8.907-1.01-12.724-3.003l-.006-.004c-4.645-2.403-8.512-6.236-11.183-11.082zm12.293 21.101v-5.01c3.604 1.4 7.498 2.111 11.62 2.111 4.123 0 8.018-.711 11.62-2.111v5.01c-1.061 1.867-5.732 9.442-11.62 9.442-5.89 0-10.561-7.579-11.62-9.442zm25.76 3.748c2.981 2.405 7.343 4.904 9.564 6.12-.68 3.116-3.165 10.543-11.4 10.543-4.215 0-7.202-1.453-8.88-4.317a10.281 10.281 0 0 1-1.101-2.79c5.604-1.2 9.789-6.46 11.817-9.556zm35.759 33.117H27.1v-4.773c.015-.39.643-11.438 18.792-19.221a69.963 69.963 0 0 1 3.578-1.41c.364 1.419.983 3.28 2.012 5.146 2.856 5.18 7.425 7.917 13.213 7.917 6.85 0 10.431-3.042 12.304-6.184 1.873 3.142 5.454 6.184 12.304 6.184 5.788 0 10.357-2.737 13.213-7.917 1.032-1.87 1.651-3.736 2.015-5.156 1.251.443 2.46.907 3.605 1.394 5.306 2.248 12.452 6.264 16.363 12.626 2.247 3.655 2.392 6.456 2.399 6.619v4.775z" mask="url(#b)"/></g></svg>